<svg width="185" height="54" viewBox="0 0 185 54" fill="none" xmlns="http://www.w3.org/2000/svg">
<g clip-path="url(#clip0_3446_8755)">
<path fill-rule="evenodd" clip-rule="evenodd" d="M78.5098 8.16136C79.5163 9.05379 80.8536 9.5 82.5216 9.5C84.1608 9.5 85.4837 9.05379 86.4902 8.16136C87.4967 7.26894 88 6.14621 88 4.79318C88 3.41136 87.4967 2.27424 86.4902 1.38182C85.4837 0.460606 84.1608 0 82.5216 0C80.8536 0 79.5163 0.460606 78.5098 1.38182C77.5033 2.27424 77 3.41136 77 4.79318C77 6.14621 77.5033 7.26894 78.5098 8.16136ZM159.872 25.6531C159.957 25.0597 160 24.438 160 23.7881C160 21.3296 159.475 19.1961 158.426 17.3875C157.405 15.579 155.959 14.1943 154.088 13.2336C152.244 12.2445 150.132 11.75 147.75 11.75C145.368 11.75 143.241 12.2445 141.37 13.2336C139.527 14.2226 138.08 15.6497 137.031 17.5147C136.01 19.3515 135.5 21.5133 135.5 24C135.5 26.4867 136.01 28.6626 137.031 30.5277C138.08 32.3645 139.527 33.7774 141.37 34.7664C143.241 35.7555 145.368 36.25 147.75 36.25C149.735 36.25 151.55 35.8685 153.194 35.1055C154.867 34.3143 156.243 33.2546 157.32 31.9265C158.426 30.5701 159.149 29.0441 159.49 27.3486H149.494C149.04 28.2811 148.303 28.7474 147.282 28.7474C145.694 28.7474 144.829 27.716 144.688 25.6531H159.872ZM149.664 19.7612C150.174 20.1569 150.43 20.7503 150.43 21.5415H144.815C145.099 19.9308 146.077 19.1254 147.75 19.1254C148.516 19.1254 149.154 19.3374 149.664 19.7612ZM130.534 13.1153C129.144 13.9377 127.967 15.0436 127.003 16.4332V12H118V36H127.003V26.1741C127.003 24.586 127.414 23.4801 128.237 22.8562C129.087 22.2323 130.406 21.9204 132.193 21.9204H135V11.85C133.497 11.85 131.923 12.2646 130.534 13.1153ZM185 23.7881C185 24.438 184.957 25.0597 184.872 25.6531H169.688C169.829 27.716 170.694 28.7474 172.282 28.7474C173.303 28.7474 174.04 28.2811 174.494 27.3486H184.49C184.149 29.0441 183.426 30.5701 182.32 31.9265C181.243 33.2546 179.867 34.3143 178.194 35.1055C176.55 35.8685 174.735 36.25 172.75 36.25C170.368 36.25 168.241 35.7555 166.37 34.7664C164.527 33.7774 163.08 32.3645 162.031 30.5277C161.01 28.6626 160.5 26.4867 160.5 24C160.5 21.5133 161.01 19.3515 162.031 17.5147C163.08 15.6497 164.527 14.2226 166.37 13.2336C168.241 12.2445 170.368 11.75 172.75 11.75C175.132 11.75 177.244 12.2445 179.088 13.2336C180.959 14.1943 182.405 15.579 183.426 17.3875C184.475 19.1961 185 21.3296 185 23.7881ZM175.43 21.5415C175.43 20.7503 175.174 20.1569 174.664 19.7612C174.154 19.3374 173.516 19.1254 172.75 19.1254C171.077 19.1254 170.099 19.9308 169.815 21.5415H175.43ZM117.5 12L101.962 48H91.5029L97.6148 35.1367L87.5 12H98.1313L102.694 24.3453L106.955 12H117.5ZM87 12H78V36H87V12Z" fill="#00161A"/>
<rect x="26" width="44" height="44" rx="16" fill="#6EB5C0"/>
<path d="M10.3376 0.535231C10.4909 -0.17841 11.5091 -0.178411 11.6624 0.535231L13.0734 7.10615C13.2692 8.01825 13.9817 8.73075 14.8938 8.92661L21.4648 10.3376C22.1784 10.4909 22.1784 11.5091 21.4648 11.6624L14.8938 13.0734C13.9817 13.2692 13.2692 13.9817 13.0734 14.8938L11.6624 21.4648C11.5091 22.1784 10.4909 22.1784 10.3376 21.4648L8.92661 14.8938C8.73075 13.9817 8.01826 13.2692 7.10615 13.0734L0.535231 11.6624C-0.17841 11.5091 -0.178411 10.4909 0.535231 10.3376L7.10615 8.92661C8.01826 8.73075 8.73075 8.01826 8.92661 7.10615L10.3376 0.535231Z" fill="#6EB5C0"/>
<path d="M72.5183 38.3893C72.6297 37.8702 73.3703 37.8702 73.4817 38.3893L74.5079 43.1681C74.6504 43.8315 75.1685 44.3496 75.8319 44.4921L80.6107 45.5183C81.1298 45.6297 81.1298 46.3703 80.6107 46.4817L75.8319 47.5079C75.1685 47.6504 74.6504 48.1685 74.5079 48.8319L73.4817 53.6107C73.3703 54.1298 72.6297 54.1298 72.5183 53.6107L71.4921 48.8319C71.3496 48.1685 70.8315 47.6504 70.1681 47.5079L65.3893 46.4817C64.8702 46.3703 64.8702 45.6297 65.3893 45.5183L70.1681 44.4921C70.8315 44.3496 71.3496 43.8315 71.4921 43.1681L72.5183 38.3893Z" fill="#00161A"/>
<path d="M20 33L32.2931 20.234C32.6814 19.8309 33.3248 19.8248 33.7206 20.2206L45.4495 31.9495C45.9514 32.4514 46.8018 32.2852 47.0779 31.6314L56 10.5" stroke="#191E25" stroke-width="9"/>
</g>
<defs>
<clipPath id="clip0_3446_8755">
<rect width="185" height="54" fill="white"/>
</clipPath>
</defs>
</svg>
