<svg width="81" height="54" viewBox="0 0 81 54" fill="none" xmlns="http://www.w3.org/2000/svg">
<g clip-path="url(#clip0_3445_8736)">
<rect x="26" width="44" height="44" rx="16" fill="#6EB5C0"/>
<path d="M10.3376 0.535231C10.4909 -0.17841 11.5091 -0.178411 11.6624 0.535231L13.0734 7.10615C13.2692 8.01825 13.9817 8.73075 14.8938 8.92661L21.4648 10.3376C22.1784 10.4909 22.1784 11.5091 21.4648 11.6624L14.8938 13.0734C13.9817 13.2692 13.2692 13.9817 13.0734 14.8938L11.6624 21.4648C11.5091 22.1784 10.4909 22.1784 10.3376 21.4648L8.92661 14.8938C8.73075 13.9817 8.01826 13.2692 7.10615 13.0734L0.535231 11.6624C-0.17841 11.5091 -0.178411 10.4909 0.535231 10.3376L7.10615 8.92661C8.01826 8.73075 8.73075 8.01826 8.92661 7.10615L10.3376 0.535231Z" fill="#6EB5C0"/>
<path d="M72.5183 38.3893C72.6297 37.8702 73.3703 37.8702 73.4817 38.3893L74.5079 43.1681C74.6504 43.8315 75.1685 44.3496 75.8319 44.4921L80.6107 45.5183C81.1298 45.6297 81.1298 46.3703 80.6107 46.4817L75.8319 47.5079C75.1685 47.6504 74.6504 48.1685 74.5079 48.8319L73.4817 53.6107C73.3703 54.1298 72.6297 54.1298 72.5183 53.6107L71.4921 48.8319C71.3496 48.1685 70.8315 47.6504 70.1681 47.5079L65.3893 46.4817C64.8702 46.3703 64.8702 45.6297 65.3893 45.5183L70.1681 44.4921C70.8315 44.3496 71.3496 43.8315 71.4921 43.1681L72.5183 38.3893Z" fill="#00161A"/>
<path d="M20 33L32.2931 20.234C32.6814 19.8309 33.3248 19.8248 33.7206 20.2206L45.4495 31.9495C45.9514 32.4514 46.8018 32.2852 47.0779 31.6314L56 10.5" stroke="#191E25" stroke-width="9"/>
</g>
<defs>
<clipPath id="clip0_3445_8736">
<rect width="81" height="54" fill="white"/>
</clipPath>
</defs>
</svg>
